# AST/ASF file generated using VICON BodyLanguage
# -----------------------------------------------
:version 1.10
:name VICON
:units
  mass 1.0
  length 0.45
  angle deg
:documentation
   .ast/.asf automatically generated from VICON data using
   VICON BodyBuilder and BodyLanguage model FoxedUp or BRILLIANT.MOD
:root
   order TX TY TZ RX RY RZ
   axis XYZ
   position 0 0 0  
   orientation 0 0 0 
:bonedata
  begin
     id 1 
     name lhipjoint
     direction 0.611823 -0.767273 0.19226 
     length 2.47422 
     axis 0 0 0  XYZ
  end
  begin
     id 2 
     name lfemur
     direction 0.34202 -0.939693 0  
     length 7.40835  
     axis 0 0 20  XYZ
    dof rx ry rz
    limits (-160.0 20.0)
           (-70.0 70.0)
           (-60.0 70.0)
  end
  begin
     id 3 
     name ltibia
     direction 0.34202 -0.939693 0   
     length 8.03679   
     axis 0 0 20   XYZ
    dof rx
    limits (-10.0 170.0)
  end
  begin
     id 4 
     name lfoot
     direction 0.0883598 -0.242766 0.966052   
     length 2.06694   
     axis -90 7.62852e-016 20   XYZ
    dof rx rz
    limits (-45.0 90.0)
           (-70.0 20.0)
  end
  begin
     id 5 
     name ltoes
     direction 1.53617e-011 -4.21699e-011 1   
     length 1.03711   
     axis -90 7.62852e-016 20   XYZ
    dof rx
    limits (-90.0 20.0)
  end
  begin
     id 6 
     name rhipjoint
     direction -0.590066 -0.783143 0.196236   
     length 2.42408  
     axis 0 0 0  XYZ 
  end
  begin
     id 7 
     name rfemur
     direction -0.34202 -0.939693 0   
     length 7.88987   
     axis 0 0 -20   XYZ
    dof rx ry rz
    limits (-160.0 20.0)
           (-70.0 70.0)
           (-70.0 60.0)
  end
  begin
     id 8 
     name rtibia
     direction -0.34202 -0.939693 0   
     length 7.87584   
     axis 0 0 -20   XYZ
    dof rx
    limits (-10.0 170.0)
 end
 begin
     id 9 
     name rfoot
     direction -0.130476 -0.358481 0.924374   
     length 2.21745  
     axis -90 -7.62852e-016 -20   XYZ
    dof rx rz
    limits (-45.0 90.0)
           (-20.0 70.0)
  end
  begin
     id 10 
     name rtoes
     direction 8.20695e-005 8.89091e-005 1   
     length 1.09536   
     axis -90 -7.62852e-016 -20   XYZ
    dof rx
    limits (-90.0 20.0)
  end
  begin
     id 11 
     name lowerback
     direction 0.00981224 0.999875 -0.0124197   
     length 1.94808   
     axis 0 0 0   XYZ
    dof rx ry rz
    limits (-20.0 45.0)
           (-30.0 30.0)
           (-30.0 30.0)
  end
  begin
     id 12 
     name upperback
     direction 0.038911 0.999194 0.00981686   
     length 1.94415   
     axis 0 0 0   XYZ
    dof rx ry rz
    limits (-20.0 45.0)
           (-30.0 30.0)
           (-30.0 30.0)
  end
  begin
     id 13 
     name thorax
     direction 0.0330692 0.999334 0.0154389   
     length 1.94117   
     axis 0 0 0   XYZ
    dof rx ry rz
    limits (-20.0 45.0)
           (-30.0 30.0)
           (-30.0 30.0)
  end
  begin
     id 14 
     name lowerneck
     direction -0.0374305 0.99415 0.10132   
     length 1.87291   
     axis 0 0 0   XYZ
    dof rx ry rz
    limits (-20.0 45.0)
           (-30.0 30.0)
           (-30.0 30.0)
  end
  begin
     id 15 
     name upperneck
     direction 0.0120692 0.985979 -0.166431   
     length 1.89248   
     axis 0 0 0   XYZ
    dof rx ry rz
    limits (-20.0 45.0)
           (-30.0 30.0)
           (-30.0 30.0)
  end
  begin
     id 16
     name head
     direction 0.00629908 0.997708 -0.06737  
     length 1.90559  
     axis 0 0 0   XYZ
    dof rx ry rz
    limits (-20.0 45.0)
           (-30.0 30.0)
           (-30.0 30.0)
  end
  begin
     id 17 
     name lclavicle
     direction 0.961536 0.27308 -0.0295863  
     length 3.52757  
     axis 0 0 0   XYZ
    dof ry rz
    limits (-20.0 10.0)
           (0.0 20.0)
  end
  begin
     id 18 
     name lhumerus
     direction 1 -4.48969e-011 2.61153e-029   
     length 5.14845   
     axis 180 -30 -90   XYZ
    dof rx ry rz
    limits (-60.0 90.0)
           (-90.0 90.0)
           (-90.0 90.0)
  end
  begin
     id 19
     name lradius
     direction 1 -4.4896e-011 -3.37549e-027   
     length 3.43674   
     axis 180 -30 -90   XYZ
    dof rx
    limits (-10.0 170.0)
  end
  begin
     id 20
     name lwrist
     direction 1 -4.48969e-011 2.56952e-028   
     length 1.71837   
     axis -5.12785e-016 90 90   XYZ
    dof ry
    limits (-180.0 0.0)
 end
  begin
     id 21 
     name lhand
     direction 1 -4.49094e-011 5.13905e-028   
     length 0.588709   
     axis -3.27915e-016 90 90   XYZ
    dof rx rz
    limits (-90.0 90.0)
           (-45.0 45.0)
  end
  begin
     id 22 
     name lfingers
     direction 1 -4.48821e-011 1.02781e-027   
     length 0.474633   
     axis -6.5583e-016 90 90   XYZ
    dof rx
    limits (0.0 90.0)
  end
  begin
     id 23
     name lthumb
     direction 0.707107 -6.34922e-011 0.707107   
     length 0.68148   
     axis -90 45 2.85299e-015   XYZ
    dof rx rz
    limits (-45.0 45.0)
           (-45.0 45.0)
  end
  begin
     id 24 
     name rclavicle
     direction -0.940964 0.333844 -0.0559866   
     length 3.55948  
     axis 0 0 0   XYZ 
    dof ry rz
    limits (-10.0 20.0)
           (-20.0 0.0)
  end
  begin
     id 25 
     name rhumerus
     direction -1 -4.48973e-011 3.15259e-027  
     length 5.42185   
     axis 180 30 90   XYZ
    dof rx ry rz
    limits (-90.0 60.0)
           (-90.0 90.0)
           (-90.0 90.0)
  end
  begin
     id 26 
     name rradius
     direction -1 -4.48954e-011 -2.56271e-027   
     length 3.51317   
     axis 180 30 90   XYZ
    dof rx
    limits (-10.0 170.0)
  end
  begin
     id 27 
     name rwrist
     direction -1 -4.48943e-011 2.56952e-028   
     length 1.75658   
     axis -5.12785e-016 -90 -90   XYZ
    dof ry
    limits (-180.0 0.0)
  end
  begin
     id 28
     name rhand
     direction -1 -4.4912e-011 5.13905e-028   
     length 0.663187   
     axis -3.27915e-016 -90 -90   XYZ
    dof rx rz
    limits (-90.0 90.0)
           (-45.0 45.0)
  end
  begin
     id 29
     name rfingers
     direction -1 -4.48914e-011 1.02781e-027   
     length 0.534679   
     axis -6.5583e-016 -90 -90   XYZ
    dof rx
    limits (0.0 90.0)
  end
  begin
     id 30
     name rthumb
     direction -0.707107 -6.35033e-011 0.707107   
     length 0.767695   
     axis -90 -45 -2.85299e-015   XYZ
    dof rx rz
    limits (-45.0 45.0)
           (-45.0 45.0)
  end
:hierarchy
  begin
    root lhipjoint rhipjoint lowerback
    lhipjoint lfemur
    lfemur ltibia
    ltibia lfoot
    lfoot ltoes
    rhipjoint rfemur
    rfemur rtibia
    rtibia rfoot
    rfoot rtoes
    lowerback upperback
    upperback thorax
    thorax lowerneck lclavicle rclavicle
    lowerneck upperneck
    upperneck head
    lclavicle lhumerus
    lhumerus lradius
    lradius lwrist
    lwrist lhand lthumb
    lhand lfingers
    rclavicle rhumerus
    rhumerus rradius
    rradius rwrist
    rwrist rhand rthumb
    rhand rfingers
  end

#!OML:ASF F:\VICON\USERDATA\INSTALL\Justin_a\Justin_a.ASF
:FULLY-SPECIFIED
:DEGREES
2654
root 1.80707 17.8411 0.479932 2.85882 44.2667 -5.34467
lowerback -0.679461 1.57757 -0.107084
upperback 1.47218 2.07487 3.58277
thorax 1.75563 1.02055 3.79049
lowerneck -11.3042 1.07643 -3.65185
upperneck 34.6388 5.77177 -6.66152
head 13.8272 1.45095 -1.09804
rclavicle 8.22969e-014 7.07673e-014
rhumerus -40.0579 -8.39361 -80.2957
rradius 28.6037
rwrist -5.09011
rhand -27.6124 12.4213
rfingers 7.12502
rthumb -1.01153 -17.5561
lclavicle 8.22969e-014 7.07673e-014
lhumerus -34.1225 11.2955 83.3519
lradius 47.0395
lwrist 13.0649
lhand -19.0574 25.9965
lfingers 7.12502
lthumb 7.24979 55.8523
rfemur -4.98812 8.35384 28.792
rtibia 31.5602
rfoot -27.4356 -6.23069
rtoes -8.66722
lfemur -27.5585 -1.46081 -12.5034
ltibia 9.54166e-015
lfoot -2.58357 8.20127
ltoes -1.4989
2655
root 1.93717 17.8244 0.567739 2.87837 44.1281 -5.34084
lowerback -0.681705 1.59284 -0.140794
upperback 1.42578 2.09697 3.53447
thorax 1.70823 1.032 3.75874
lowerneck -11.2686 1.11037 -3.51849
upperneck 34.6835 5.80774 -6.70846
head 13.8449 1.4773 -1.13612
rclavicle -1.98785e-014 3.97569e-015
rhumerus -40.0655 -8.59545 -80.3043
rradius 28.6672
rwrist -5.27023
rhand -27.9145 12.5156
rfingers 7.12502
rthumb -1.3033 -17.4602
lclavicle -1.98785e-014 3.97569e-015
lhumerus -34.3772 11.0727 83.4272
lradius 47.0529
lwrist 13.475
lhand -18.7249 26.5188
lfingers 7.12502
lthumb 7.57071 56.3633
rfemur -4.62772 8.4194 28.7018
rtibia 31.9061
rfoot -27.4455 -6.00095
rtoes -8.83751
lfemur -27.5442 -1.48955 -12.4652
ltibia -1.27222e-014
lfoot -2.24064 8.09847
ltoes -1.44888
2656
root 2.06646 17.8146 0.658488 2.97572 44.0217 -5.34877
lowerback -0.7389 1.61668 -0.212819
upperback 1.35345 2.13065 3.53313
thorax 1.66125 1.04888 3.79878
lowerneck -11.3933 1.11832 -3.52709
upperneck 34.8551 5.84391 -6.67651
head 13.9503 1.48738 -1.1182
rclavicle 9.42239e-014 7.95139e-016
rhumerus -40.0911 -8.62463 -80.3243
rradius 28.8576
rwrist -5.95927
rhand -27.6055 12.5994
rfingers 7.12502
rthumb -1.00489 -17.378
lclavicle 9.42239e-014 7.95139e-016
lhumerus -34.5323 10.9877 83.5823
lradius 46.8925
lwrist 13.898
lhand -18.94 27.0997
lfingers 7.12502
lthumb 7.36306 56.9516
rfemur -4.42896 8.52537 28.6261
rtibia 32.2893
rfoot -27.304 -5.69231
rtoes -8.78768
lfemur -27.5068 -1.55229 -12.4389
ltibia 2.54444e-014
lfoot -1.77345 8.19612
ltoes -1.441
2657
root 2.19564 17.7992 0.746439 2.89177 43.9573 -5.50844
lowerback -0.681804 1.61738 -0.106986
upperback 1.30196 2.13243 3.54614
thorax 1.57942 1.05243 3.74937
lowerneck -11.6353 1.106 -3.7193
upperneck 35.1079 5.85269 -6.46837
head 14.1069 1.47758 -1.00111
rclavicle -2.22639e-014 7.95139e-015
rhumerus -40.1096 -8.63124 -80.3807
rradius 29.0699
rwrist -6.37831
rhand -27.4838 12.7683
rfingers 7.12502
rthumb -0.887313 -17.2096
lclavicle -2.22639e-014 7.95139e-015
lhumerus -34.5676 11.4014 83.5414
lradius 46.4675
lwrist 13.9705
lhand -19.2169 26.6626
lfingers 7.12502
lthumb 7.09578 56.5237
rfemur -4.05759 8.62175 28.7071
rtibia 32.6846
rfoot -27.1595 -5.45332
rtoes -8.47065
lfemur -27.3422 -1.6546 -12.2924
ltibia 4.77083e-014
lfoot -1.27944 8.3162
ltoes -0.672254
2658
root 2.32854 17.7808 0.835602 2.72531 43.8984 -5.71011
lowerback -0.697965 1.60719 -0.0213356
upperback 1.32011 2.11676 3.59953
thorax 1.60931 1.04524 3.7572
lowerneck -11.733 1.12888 -3.79018
upperneck 35.1583 5.89721 -6.41043
head 14.1493 1.48995 -0.95841
rclavicle -6.97734e-014 1.59028e-015
rhumerus -39.995 -8.7429 -80.3182
rradius 29.1108
rwrist -6.31013
rhand -27.6696 12.768
rfingers 7.12502
rthumb -1.06677 -17.2091
lclavicle -6.97734e-014 1.59028e-015
lhumerus -34.49 12.1226 83.4741
lradius 45.8649
lwrist 13.6492
lhand -19.1968 26.1782
lfingers 7.12502
lthumb 7.11517 56.0386
rfemur -3.70004 8.67301 28.8122
rtibia 33.1299
rfoot -26.9765 -5.23971
rtoes -8.30029
lfemur -27.0592 -1.78065 -12.139
ltibia 4.77083e-014
lfoot -0.786292 8.37978
ltoes -0.74228
2659
root 2.46679 17.7635 0.929854 2.51414 43.794 -5.87208
lowerback -0.739143 1.61952 -0.0121889
upperback 1.36361 2.131 3.64429
thorax 1.67495 1.05149 3.80122
lowerneck -11.6393 1.14658 -3.68457
upperneck 35.0517 5.90253 -6.49422
head 14.0853 1.50078 -1.00941
rclavicle -1.6201e-014 2.38542e-015
rhumerus -39.9461 -8.74166 -80.3191
rradius 29.2056
rwrist -6.48731
rhand -27.7722 12.6097
rfingers 7.12502
rthumb -1.16587 -17.3669
lclavicle -1.6201e-014 2.38542e-015
lhumerus -34.7469 12.2514 83.4953
lradius 45.6652
lwrist 13.1943
lhand -18.7729 26.033
lfingers 7.12502
lthumb 7.52436 55.8792
rfemur -3.27171 8.64773 28.8921
rtibia 33.5947
rfoot -26.765 -5.2043
rtoes -8.94009
lfemur -26.5899 -1.87868 -12.029
ltibia -7.31528e-014
lfoot -0.288404 8.45198
ltoes 0.313574
2660
root 2.61004 17.7543 1.02462 2.39458 43.7199 -5.86874
lowerback -0.791676 1.62436 -0.0213862
upperback 1.42464 2.13487 3.61579
thorax 1.76769 1.05193 3.78028
lowerneck -11.5942 1.16911 -3.58428
upperneck 34.9681 5.90587 -6.53244
head 14.0402 1.51348 -1.04119
rclavicle 2.65378e-014 2.3059e-014
rhumerus -39.9248 -8.75536 -80.3422
rradius 29.3823
rwrist -6.83065
rhand -27.7434 12.4597
rfingers 7.12502
rthumb -1.1381 -17.5171
lclavicle 2.65378e-014 2.3059e-014
lhumerus -34.847 12.2952 83.5366
lradius 45.2564
lwrist 13.003
lhand -18.9109 26.2872
lfingers 7.12502
lthumb 7.39113 56.138
rfemur -2.82155 8.45428 28.8089
rtibia 34.0832
rfoot -26.4941 -5.0539
rtoes -9.71186
lfemur -27.2894 -2.06539 -12.119
ltibia 2.46081
lfoot -0.825317 8.48104
ltoes -0.590708
2661
root 2.75555 17.7493 1.11812 2.3837 43.6607 -5.70008
lowerback -0.746105 1.58783 -0.163785
upperback 1.41757 2.08938 3.56172
thorax 1.73471 1.02754 3.80185
lowerneck -11.6286 1.21721 -3.55311
upperneck 35.0861 5.96251 -6.46558
head 14.1005 1.54564 -1.01272
rclavicle 3.85642e-014 1.90833e-014
rhumerus -40.018 -8.81976 -80.2988
rradius 29.5454
rwrist -6.88234
rhand -27.5809 12.4208
rfingers 7.12502
rthumb -0.981185 -17.5567
lclavicle 3.85642e-014 1.90833e-014
lhumerus -34.9811 12.8159 83.3721
lradius 44.6093
lwrist 12.553
lhand -18.3454 25.8131
lfingers 7.12502
lthumb 7.937 55.6441
rfemur -2.36069 8.2127 28.5763
rtibia 34.5913
rfoot -26.1256 -4.7231
rtoes -10.2568
lfemur -28.5933 -2.29295 -12.3519
ltibia 6.14207
lfoot -1.64233 8.31549
ltoes -1.58434
2662
root 2.89817 17.7483 1.21678 2.41899 43.5799 -5.46731
lowerback -0.666748 1.58287 -0.454794
upperback 1.38038 2.08937 3.49971
thorax 1.64391 1.02487 3.89808
lowerneck -11.5683 1.24077 -3.42899
upperneck 35.1621 5.94182 -6.39135
head 14.1187 1.56168 -1.00947
rclavicle -8.68689e-014 0
rhumerus -40.2157 -8.96804 -80.2642
rradius 29.7189
rwrist -6.8889
rhand -27.5276 12.4475
rfingers 7.12502
rthumb -0.929631 -17.5302
lclavicle -8.68689e-014 0
lhumerus -35.0986 13.2688 83.2044
lradius 43.8946
lwrist 12.1996
lhand -17.8652 24.9414
lfingers 7.12502
lthumb 8.40039 54.7544
rfemur -1.88786 8.09486 28.3409
rtibia 35.1377
rfoot -25.6765 -4.47066
rtoes -10.7993
lfemur -29.1948 -2.47437 -12.59
ltibia 8.39434
lfoot -1.04227 8.0495
ltoes -3.06973
2663
root 3.04225 17.7574 1.31918 2.39517 43.5301 -5.30425
lowerback -0.615426 1.60859 -0.654836
upperback 1.35333 2.12789 3.45221
thorax 1.57916 1.04257 3.95992
lowerneck -11.4462 1.22668 -3.31454
upperneck 35.1959 5.88585 -6.3851
head 14.1062 1.55649 -1.0372
rclavicle -1.2921e-015 2.06736e-014
rhumerus -40.2985 -9.24342 -80.1571
rradius 29.7335
rwrist -6.97346
rhand -27.8316 12.238
rfingers 7.12502
rthumb -1.22326 -17.7383
lclavicle -1.2921e-015 2.06736e-014
lhumerus -35.3152 13.3858 83.258
lradius 43.3995
lwrist 12.1986
lhand -18.4547 25.4694
lfingers 7.12502
lthumb 7.83152 55.3044
rfemur -1.47083 7.97778 28.1608
rtibia 35.7444
rfoot -25.0275 -4.25036
rtoes -11.4388
lfemur -29.5705 -2.66195 -12.7379
ltibia 10.1799
lfoot 0.182439 7.71355
ltoes -3.50787
2664
root 3.18747 17.7744 1.42271 2.54518 43.4779 -4.92731
lowerback -0.593503 1.62819 -1.00039
upperback 1.30143 2.16012 3.32608
thorax 1.50337 1.05586 4.02262
lowerneck -11.3744 1.21599 -3.19553
upperneck 35.3408 5.8503 -6.36802
head 14.1566 1.55784 -1.0595
rclavicle -7.65321e-015 3.97569e-016
rhumerus -40.3852 -9.53416 -80.0772
rradius 29.6955
rwrist -6.97833
rhand -27.7302 12.2701
rfingers 7.12502
rthumb -1.12535 -17.7067
lclavicle -7.65321e-015 3.97569e-016
lhumerus -35.5757 12.9552 83.574
lradius 43.2337
lwrist 13.8247
lhand -20.9783 26.9638
lfingers 7.12502
lthumb 5.39526 56.8751
rfemur -1.18135 8.025 27.8193
rtibia 36.4652
rfoot -24.1203 -3.94875
rtoes -11.2031
lfemur -29.8199 -2.15692 -13.4243
ltibia 11.7275
lfoot 1.18317 6.38484
ltoes -3.06562
2665
root 3.33289 17.7888 1.52667 2.67037 43.5581 -4.50883
lowerback -0.548711 1.57418 -1.41735
upperback 1.27843 2.094 3.23052
thorax 1.44862 1.01869 4.15614
lowerneck -11.2838 1.19457 -3.20037
upperneck 35.493 5.80567 -6.28205
head 14.2003 1.54796 -1.03375
rclavicle -6.70898e-014 -2.54444e-014
rhumerus -40.406 -9.97902 -79.8928
rradius 29.5775
rwrist -6.64321
rhand -27.5522 12.4684
rfingers 7.12502
rthumb -0.953414 -17.5092
lclavicle -6.70898e-014 -2.54444e-014
lhumerus -35.7564 13.2909 83.4591
lradius 42.5951
lwrist 13.6014
lhand -20.8871 26.6269
lfingers 7.12502
lthumb 5.48334 56.5359
rfemur -0.927666 7.9625 27.4612
rtibia 37.3435
rfoot -23.0563 -3.66743
rtoes -12.0442
lfemur -29.9381 -1.88642 -14.0713
ltibia 13.1446
lfoot 1.50055 5.24359
ltoes -3.37435
2666
root 3.47707 17.8026 1.62956 2.95769 43.731 -4.00351
lowerback -0.607338 1.50084 -1.90599
upperback 1.25981 2.00272 3.1297
thorax 1.45729 0.967131 4.32827
lowerneck -11.2886 1.14847 -3.28021
upperneck 35.6634 5.72411 -6.12353
head 14.2683 1.51796 -0.970109
rclavicle -1.36664e-014 2.42517e-014
rhumerus -40.3605 -10.4031 -79.7143
rradius 29.4877
rwrist -6.55297
rhand -27.266 12.737
rfingers 7.12502
rthumb -0.677006 -17.2417
lclavicle -1.36664e-014 2.42517e-014
lhumerus -35.8067 14.0237 83.077
lradius 41.4388
lwrist 11.7919
lhand -18.7542 25.6076
lfingers 7.12502
lthumb 7.54239 55.4531
rfemur -0.943961 7.74754 27.0269
rtibia 38.4487
rfoot -21.9052 -3.45188
rtoes -13.1159
lfemur -30.0138 -1.94995 -14.6482
ltibia 14.2936
lfoot 1.48757 4.76592
ltoes -4.04988
2667
root 3.62211 17.8124 1.72807 2.98546 43.9805 -3.80525
lowerback -0.56413 1.38813 -2.06692
upperback 1.24374 1.85431 3.05977
thorax 1.42701 0.891655 4.34316
lowerneck -11.2882 1.13526 -3.33872
upperneck 35.7811 5.68444 -5.98526
head 14.3135 1.50735 -0.911283
rclavicle -8.56762e-014 -3.06128e-014
rhumerus -40.3085 -10.5866 -79.6756
rradius 29.3972
rwrist -6.57507
rhand -27.2029 12.823
rfingers 7.12502
rthumb -0.616085 -17.1559
lclavicle -8.56762e-014 -3.06128e-014
lhumerus -35.7856 14.599 82.9092
lradius 40.431
lwrist 11.2134
lhand -18.5197 25.3549
lfingers 7.12502
lthumb 7.76871 55.1921
rfemur -1.01287 7.39891 26.8332
rtibia 39.7523
rfoot -20.564 -3.13829
rtoes -12.8727
lfemur -30.0329 -1.78139 -15.1075
ltibia 15.3548
lfoot 1.75104 3.94981
ltoes -5.05291
